<mxfile host="app.diagrams.net" modified="2023-09-28T21:16:21.654Z" agent="5.0 (Windows NT 10.0; Win64; x64) AppleWebKit/537.36 (KHTML, like Gecko) Chrome/117.0.0.0 Safari/537.36" etag="Y_4IOYDNP_OzDHSf9E3Q" version="20.8.10" type="github">
  <diagram name="Page-1" id="w_-kcuDrckVwrjbCa7vL">
    <mxGraphModel dx="2607" dy="1382" grid="1" gridSize="10" guides="1" tooltips="1" connect="1" arrows="1" fold="1" page="1" pageScale="1" pageWidth="850" pageHeight="1100" math="0" shadow="0">
      <root>
        <mxCell id="0" />
        <mxCell id="1" parent="0" />
        <mxCell id="BZiiT8lt5KZC4wHzGply-6" style="edgeStyle=orthogonalEdgeStyle;rounded=0;orthogonalLoop=1;jettySize=auto;html=1;exitX=0.5;exitY=1;exitDx=0;exitDy=0;entryX=0.5;entryY=0;entryDx=0;entryDy=0;" edge="1" parent="1" source="BZiiT8lt5KZC4wHzGply-1" target="BZiiT8lt5KZC4wHzGply-5">
          <mxGeometry relative="1" as="geometry" />
        </mxCell>
        <mxCell id="BZiiT8lt5KZC4wHzGply-1" value="START" style="ellipse;whiteSpace=wrap;html=1;" vertex="1" parent="1">
          <mxGeometry x="70" y="40" width="120" height="80" as="geometry" />
        </mxCell>
        <mxCell id="BZiiT8lt5KZC4wHzGply-9" style="edgeStyle=orthogonalEdgeStyle;rounded=0;orthogonalLoop=1;jettySize=auto;html=1;exitX=0;exitY=0.5;exitDx=0;exitDy=0;entryX=1;entryY=0.5;entryDx=0;entryDy=0;" edge="1" parent="1" source="BZiiT8lt5KZC4wHzGply-2" target="BZiiT8lt5KZC4wHzGply-3">
          <mxGeometry relative="1" as="geometry" />
        </mxCell>
        <mxCell id="BZiiT8lt5KZC4wHzGply-2" value="b++" style="rounded=0;whiteSpace=wrap;html=1;" vertex="1" parent="1">
          <mxGeometry x="240" y="220" width="120" height="60" as="geometry" />
        </mxCell>
        <mxCell id="BZiiT8lt5KZC4wHzGply-11" style="edgeStyle=orthogonalEdgeStyle;rounded=0;orthogonalLoop=1;jettySize=auto;html=1;exitX=0.5;exitY=1;exitDx=0;exitDy=0;entryX=0.5;entryY=0;entryDx=0;entryDy=0;" edge="1" parent="1" source="BZiiT8lt5KZC4wHzGply-3" target="BZiiT8lt5KZC4wHzGply-10">
          <mxGeometry relative="1" as="geometry" />
        </mxCell>
        <mxCell id="BZiiT8lt5KZC4wHzGply-3" value="a+=b;" style="rounded=0;whiteSpace=wrap;html=1;" vertex="1" parent="1">
          <mxGeometry x="70" y="220" width="120" height="60" as="geometry" />
        </mxCell>
        <mxCell id="BZiiT8lt5KZC4wHzGply-17" style="edgeStyle=orthogonalEdgeStyle;rounded=0;orthogonalLoop=1;jettySize=auto;html=1;exitX=0.5;exitY=1;exitDx=0;exitDy=0;entryX=0.5;entryY=0;entryDx=0;entryDy=0;" edge="1" parent="1" source="BZiiT8lt5KZC4wHzGply-5" target="BZiiT8lt5KZC4wHzGply-3">
          <mxGeometry relative="1" as="geometry" />
        </mxCell>
        <mxCell id="BZiiT8lt5KZC4wHzGply-5" value="a=0;&lt;br&gt;b=1;" style="rounded=0;whiteSpace=wrap;html=1;" vertex="1" parent="1">
          <mxGeometry x="70" y="140" width="120" height="60" as="geometry" />
        </mxCell>
        <mxCell id="BZiiT8lt5KZC4wHzGply-13" style="edgeStyle=orthogonalEdgeStyle;rounded=0;orthogonalLoop=1;jettySize=auto;html=1;exitX=0.5;exitY=1;exitDx=0;exitDy=0;entryX=0.5;entryY=0;entryDx=0;entryDy=0;" edge="1" parent="1" source="BZiiT8lt5KZC4wHzGply-10" target="BZiiT8lt5KZC4wHzGply-12">
          <mxGeometry relative="1" as="geometry" />
        </mxCell>
        <mxCell id="BZiiT8lt5KZC4wHzGply-10" value="out: a" style="shape=parallelogram;perimeter=parallelogramPerimeter;whiteSpace=wrap;html=1;fixedSize=1;" vertex="1" parent="1">
          <mxGeometry x="70" y="310" width="120" height="60" as="geometry" />
        </mxCell>
        <mxCell id="BZiiT8lt5KZC4wHzGply-15" style="edgeStyle=orthogonalEdgeStyle;rounded=0;orthogonalLoop=1;jettySize=auto;html=1;exitX=1;exitY=0.5;exitDx=0;exitDy=0;entryX=0.5;entryY=1;entryDx=0;entryDy=0;" edge="1" parent="1" source="BZiiT8lt5KZC4wHzGply-12" target="BZiiT8lt5KZC4wHzGply-2">
          <mxGeometry relative="1" as="geometry" />
        </mxCell>
        <mxCell id="BZiiT8lt5KZC4wHzGply-16" style="edgeStyle=orthogonalEdgeStyle;rounded=0;orthogonalLoop=1;jettySize=auto;html=1;exitX=0.5;exitY=1;exitDx=0;exitDy=0;entryX=0.5;entryY=0;entryDx=0;entryDy=0;" edge="1" parent="1" source="BZiiT8lt5KZC4wHzGply-12" target="BZiiT8lt5KZC4wHzGply-14">
          <mxGeometry relative="1" as="geometry" />
        </mxCell>
        <mxCell id="BZiiT8lt5KZC4wHzGply-12" value="b==2021" style="rhombus;whiteSpace=wrap;html=1;" vertex="1" parent="1">
          <mxGeometry x="90" y="410" width="80" height="80" as="geometry" />
        </mxCell>
        <mxCell id="BZiiT8lt5KZC4wHzGply-14" value="END" style="ellipse;whiteSpace=wrap;html=1;" vertex="1" parent="1">
          <mxGeometry x="70" y="520" width="120" height="80" as="geometry" />
        </mxCell>
        <mxCell id="BZiiT8lt5KZC4wHzGply-18" value="1" style="text;html=1;align=center;verticalAlign=middle;resizable=0;points=[];autosize=1;strokeColor=none;fillColor=none;fontSize=18;" vertex="1" parent="1">
          <mxGeometry x="15" width="30" height="40" as="geometry" />
        </mxCell>
        <mxCell id="BZiiT8lt5KZC4wHzGply-19" style="edgeStyle=orthogonalEdgeStyle;rounded=0;orthogonalLoop=1;jettySize=auto;html=1;exitX=0.5;exitY=1;exitDx=0;exitDy=0;entryX=0.5;entryY=0;entryDx=0;entryDy=0;" edge="1" parent="1" source="BZiiT8lt5KZC4wHzGply-20" target="BZiiT8lt5KZC4wHzGply-26">
          <mxGeometry relative="1" as="geometry" />
        </mxCell>
        <mxCell id="BZiiT8lt5KZC4wHzGply-20" value="START" style="ellipse;whiteSpace=wrap;html=1;" vertex="1" parent="1">
          <mxGeometry x="445" y="40" width="120" height="80" as="geometry" />
        </mxCell>
        <mxCell id="BZiiT8lt5KZC4wHzGply-21" style="edgeStyle=orthogonalEdgeStyle;rounded=0;orthogonalLoop=1;jettySize=auto;html=1;exitX=0;exitY=0.5;exitDx=0;exitDy=0;entryX=1;entryY=0.5;entryDx=0;entryDy=0;" edge="1" parent="1" source="BZiiT8lt5KZC4wHzGply-22" target="BZiiT8lt5KZC4wHzGply-24">
          <mxGeometry relative="1" as="geometry" />
        </mxCell>
        <mxCell id="BZiiT8lt5KZC4wHzGply-22" value="b=b+2;" style="rounded=0;whiteSpace=wrap;html=1;" vertex="1" parent="1">
          <mxGeometry x="615" y="220" width="120" height="60" as="geometry" />
        </mxCell>
        <mxCell id="BZiiT8lt5KZC4wHzGply-23" style="edgeStyle=orthogonalEdgeStyle;rounded=0;orthogonalLoop=1;jettySize=auto;html=1;exitX=0.5;exitY=1;exitDx=0;exitDy=0;entryX=0.5;entryY=0;entryDx=0;entryDy=0;" edge="1" parent="1" source="BZiiT8lt5KZC4wHzGply-24" target="BZiiT8lt5KZC4wHzGply-28">
          <mxGeometry relative="1" as="geometry" />
        </mxCell>
        <mxCell id="BZiiT8lt5KZC4wHzGply-24" value="a+=b;" style="rounded=0;whiteSpace=wrap;html=1;" vertex="1" parent="1">
          <mxGeometry x="445" y="220" width="120" height="60" as="geometry" />
        </mxCell>
        <mxCell id="BZiiT8lt5KZC4wHzGply-25" style="edgeStyle=orthogonalEdgeStyle;rounded=0;orthogonalLoop=1;jettySize=auto;html=1;exitX=0.5;exitY=1;exitDx=0;exitDy=0;entryX=0.5;entryY=0;entryDx=0;entryDy=0;" edge="1" parent="1" source="BZiiT8lt5KZC4wHzGply-26" target="BZiiT8lt5KZC4wHzGply-24">
          <mxGeometry relative="1" as="geometry" />
        </mxCell>
        <mxCell id="BZiiT8lt5KZC4wHzGply-26" value="a=0;&lt;br&gt;b=1;" style="rounded=0;whiteSpace=wrap;html=1;" vertex="1" parent="1">
          <mxGeometry x="445" y="140" width="120" height="60" as="geometry" />
        </mxCell>
        <mxCell id="BZiiT8lt5KZC4wHzGply-27" style="edgeStyle=orthogonalEdgeStyle;rounded=0;orthogonalLoop=1;jettySize=auto;html=1;exitX=0.5;exitY=1;exitDx=0;exitDy=0;entryX=0.5;entryY=0;entryDx=0;entryDy=0;" edge="1" parent="1" source="BZiiT8lt5KZC4wHzGply-28" target="BZiiT8lt5KZC4wHzGply-31">
          <mxGeometry relative="1" as="geometry" />
        </mxCell>
        <mxCell id="BZiiT8lt5KZC4wHzGply-28" value="out: a" style="shape=parallelogram;perimeter=parallelogramPerimeter;whiteSpace=wrap;html=1;fixedSize=1;" vertex="1" parent="1">
          <mxGeometry x="445" y="310" width="120" height="60" as="geometry" />
        </mxCell>
        <mxCell id="BZiiT8lt5KZC4wHzGply-29" style="edgeStyle=orthogonalEdgeStyle;rounded=0;orthogonalLoop=1;jettySize=auto;html=1;exitX=1;exitY=0.5;exitDx=0;exitDy=0;entryX=0.5;entryY=1;entryDx=0;entryDy=0;" edge="1" parent="1" source="BZiiT8lt5KZC4wHzGply-31" target="BZiiT8lt5KZC4wHzGply-22">
          <mxGeometry relative="1" as="geometry" />
        </mxCell>
        <mxCell id="BZiiT8lt5KZC4wHzGply-30" style="edgeStyle=orthogonalEdgeStyle;rounded=0;orthogonalLoop=1;jettySize=auto;html=1;exitX=0.5;exitY=1;exitDx=0;exitDy=0;entryX=0.5;entryY=0;entryDx=0;entryDy=0;" edge="1" parent="1" source="BZiiT8lt5KZC4wHzGply-31" target="BZiiT8lt5KZC4wHzGply-32">
          <mxGeometry relative="1" as="geometry" />
        </mxCell>
        <mxCell id="BZiiT8lt5KZC4wHzGply-31" value="b==2021" style="rhombus;whiteSpace=wrap;html=1;" vertex="1" parent="1">
          <mxGeometry x="465" y="410" width="80" height="80" as="geometry" />
        </mxCell>
        <mxCell id="BZiiT8lt5KZC4wHzGply-32" value="END" style="ellipse;whiteSpace=wrap;html=1;" vertex="1" parent="1">
          <mxGeometry x="445" y="520" width="120" height="80" as="geometry" />
        </mxCell>
        <mxCell id="BZiiT8lt5KZC4wHzGply-33" value="2" style="text;html=1;align=center;verticalAlign=middle;resizable=0;points=[];autosize=1;strokeColor=none;fillColor=none;fontSize=18;" vertex="1" parent="1">
          <mxGeometry x="390" width="30" height="40" as="geometry" />
        </mxCell>
        <mxCell id="BZiiT8lt5KZC4wHzGply-34" style="edgeStyle=orthogonalEdgeStyle;rounded=0;orthogonalLoop=1;jettySize=auto;html=1;exitX=0.5;exitY=1;exitDx=0;exitDy=0;entryX=0.5;entryY=0;entryDx=0;entryDy=0;" edge="1" parent="1" source="BZiiT8lt5KZC4wHzGply-35" target="BZiiT8lt5KZC4wHzGply-41">
          <mxGeometry relative="1" as="geometry" />
        </mxCell>
        <mxCell id="BZiiT8lt5KZC4wHzGply-35" value="START" style="ellipse;whiteSpace=wrap;html=1;" vertex="1" parent="1">
          <mxGeometry x="805" y="40" width="120" height="80" as="geometry" />
        </mxCell>
        <mxCell id="BZiiT8lt5KZC4wHzGply-36" style="edgeStyle=orthogonalEdgeStyle;rounded=0;orthogonalLoop=1;jettySize=auto;html=1;exitX=0;exitY=0.5;exitDx=0;exitDy=0;entryX=1;entryY=0.5;entryDx=0;entryDy=0;" edge="1" parent="1" source="BZiiT8lt5KZC4wHzGply-37" target="BZiiT8lt5KZC4wHzGply-39">
          <mxGeometry relative="1" as="geometry" />
        </mxCell>
        <mxCell id="BZiiT8lt5KZC4wHzGply-37" value="b=b+2;" style="rounded=0;whiteSpace=wrap;html=1;" vertex="1" parent="1">
          <mxGeometry x="975" y="220" width="120" height="60" as="geometry" />
        </mxCell>
        <mxCell id="BZiiT8lt5KZC4wHzGply-38" style="edgeStyle=orthogonalEdgeStyle;rounded=0;orthogonalLoop=1;jettySize=auto;html=1;exitX=0.5;exitY=1;exitDx=0;exitDy=0;entryX=0.5;entryY=0;entryDx=0;entryDy=0;" edge="1" parent="1" source="BZiiT8lt5KZC4wHzGply-39" target="BZiiT8lt5KZC4wHzGply-43">
          <mxGeometry relative="1" as="geometry" />
        </mxCell>
        <mxCell id="BZiiT8lt5KZC4wHzGply-39" value="a+=b;" style="rounded=0;whiteSpace=wrap;html=1;" vertex="1" parent="1">
          <mxGeometry x="805" y="220" width="120" height="60" as="geometry" />
        </mxCell>
        <mxCell id="BZiiT8lt5KZC4wHzGply-40" style="edgeStyle=orthogonalEdgeStyle;rounded=0;orthogonalLoop=1;jettySize=auto;html=1;exitX=0.5;exitY=1;exitDx=0;exitDy=0;entryX=0.5;entryY=0;entryDx=0;entryDy=0;" edge="1" parent="1" source="BZiiT8lt5KZC4wHzGply-41" target="BZiiT8lt5KZC4wHzGply-39">
          <mxGeometry relative="1" as="geometry" />
        </mxCell>
        <mxCell id="BZiiT8lt5KZC4wHzGply-41" value="a=0;&lt;br&gt;b=1;" style="rounded=0;whiteSpace=wrap;html=1;" vertex="1" parent="1">
          <mxGeometry x="805" y="140" width="120" height="60" as="geometry" />
        </mxCell>
        <mxCell id="BZiiT8lt5KZC4wHzGply-42" style="edgeStyle=orthogonalEdgeStyle;rounded=0;orthogonalLoop=1;jettySize=auto;html=1;exitX=0.5;exitY=1;exitDx=0;exitDy=0;entryX=0.5;entryY=0;entryDx=0;entryDy=0;" edge="1" parent="1" source="BZiiT8lt5KZC4wHzGply-43" target="BZiiT8lt5KZC4wHzGply-46">
          <mxGeometry relative="1" as="geometry" />
        </mxCell>
        <mxCell id="BZiiT8lt5KZC4wHzGply-43" value="out: a" style="shape=parallelogram;perimeter=parallelogramPerimeter;whiteSpace=wrap;html=1;fixedSize=1;" vertex="1" parent="1">
          <mxGeometry x="805" y="310" width="120" height="60" as="geometry" />
        </mxCell>
        <mxCell id="BZiiT8lt5KZC4wHzGply-44" style="edgeStyle=orthogonalEdgeStyle;rounded=0;orthogonalLoop=1;jettySize=auto;html=1;exitX=1;exitY=0.5;exitDx=0;exitDy=0;entryX=0.5;entryY=1;entryDx=0;entryDy=0;" edge="1" parent="1" source="BZiiT8lt5KZC4wHzGply-46" target="BZiiT8lt5KZC4wHzGply-37">
          <mxGeometry relative="1" as="geometry" />
        </mxCell>
        <mxCell id="BZiiT8lt5KZC4wHzGply-45" style="edgeStyle=orthogonalEdgeStyle;rounded=0;orthogonalLoop=1;jettySize=auto;html=1;exitX=0.5;exitY=1;exitDx=0;exitDy=0;entryX=0.5;entryY=0;entryDx=0;entryDy=0;" edge="1" parent="1" source="BZiiT8lt5KZC4wHzGply-46" target="BZiiT8lt5KZC4wHzGply-47">
          <mxGeometry relative="1" as="geometry" />
        </mxCell>
        <mxCell id="BZiiT8lt5KZC4wHzGply-46" value="b==2021" style="rhombus;whiteSpace=wrap;html=1;" vertex="1" parent="1">
          <mxGeometry x="825" y="410" width="80" height="80" as="geometry" />
        </mxCell>
        <mxCell id="BZiiT8lt5KZC4wHzGply-47" value="END" style="ellipse;whiteSpace=wrap;html=1;" vertex="1" parent="1">
          <mxGeometry x="805" y="520" width="120" height="80" as="geometry" />
        </mxCell>
        <mxCell id="BZiiT8lt5KZC4wHzGply-48" value="3" style="text;html=1;align=center;verticalAlign=middle;resizable=0;points=[];autosize=1;strokeColor=none;fillColor=none;fontSize=18;" vertex="1" parent="1">
          <mxGeometry x="750" width="30" height="40" as="geometry" />
        </mxCell>
        <mxCell id="BZiiT8lt5KZC4wHzGply-49" style="edgeStyle=orthogonalEdgeStyle;rounded=0;orthogonalLoop=1;jettySize=auto;html=1;exitX=0.5;exitY=1;exitDx=0;exitDy=0;entryX=0.5;entryY=0;entryDx=0;entryDy=0;" edge="1" parent="1" source="BZiiT8lt5KZC4wHzGply-50" target="BZiiT8lt5KZC4wHzGply-56">
          <mxGeometry relative="1" as="geometry" />
        </mxCell>
        <mxCell id="BZiiT8lt5KZC4wHzGply-50" value="START" style="ellipse;whiteSpace=wrap;html=1;" vertex="1" parent="1">
          <mxGeometry x="1185" y="40" width="120" height="80" as="geometry" />
        </mxCell>
        <mxCell id="BZiiT8lt5KZC4wHzGply-68" style="edgeStyle=orthogonalEdgeStyle;rounded=0;orthogonalLoop=1;jettySize=auto;html=1;exitX=0;exitY=0.5;exitDx=0;exitDy=0;entryX=1;entryY=0.5;entryDx=0;entryDy=0;fontSize=12;" edge="1" parent="1" source="BZiiT8lt5KZC4wHzGply-52" target="BZiiT8lt5KZC4wHzGply-65">
          <mxGeometry relative="1" as="geometry" />
        </mxCell>
        <mxCell id="BZiiT8lt5KZC4wHzGply-52" value="a++;" style="rounded=0;whiteSpace=wrap;html=1;" vertex="1" parent="1">
          <mxGeometry x="1355" y="330" width="120" height="60" as="geometry" />
        </mxCell>
        <mxCell id="BZiiT8lt5KZC4wHzGply-55" style="edgeStyle=orthogonalEdgeStyle;rounded=0;orthogonalLoop=1;jettySize=auto;html=1;exitX=0.5;exitY=1;exitDx=0;exitDy=0;entryX=0.5;entryY=0;entryDx=0;entryDy=0;" edge="1" parent="1" source="BZiiT8lt5KZC4wHzGply-56">
          <mxGeometry relative="1" as="geometry">
            <mxPoint x="1245" y="220" as="targetPoint" />
          </mxGeometry>
        </mxCell>
        <mxCell id="BZiiT8lt5KZC4wHzGply-56" value="a=1;" style="rounded=0;whiteSpace=wrap;html=1;" vertex="1" parent="1">
          <mxGeometry x="1185" y="140" width="120" height="60" as="geometry" />
        </mxCell>
        <mxCell id="BZiiT8lt5KZC4wHzGply-57" style="edgeStyle=orthogonalEdgeStyle;rounded=0;orthogonalLoop=1;jettySize=auto;html=1;exitX=0.5;exitY=1;exitDx=0;exitDy=0;entryX=0.5;entryY=0;entryDx=0;entryDy=0;" edge="1" parent="1" source="BZiiT8lt5KZC4wHzGply-58" target="BZiiT8lt5KZC4wHzGply-61">
          <mxGeometry relative="1" as="geometry" />
        </mxCell>
        <mxCell id="BZiiT8lt5KZC4wHzGply-58" value="out: n" style="shape=parallelogram;perimeter=parallelogramPerimeter;whiteSpace=wrap;html=1;fixedSize=1;" vertex="1" parent="1">
          <mxGeometry x="1185" y="420" width="120" height="60" as="geometry" />
        </mxCell>
        <mxCell id="BZiiT8lt5KZC4wHzGply-59" style="edgeStyle=orthogonalEdgeStyle;rounded=0;orthogonalLoop=1;jettySize=auto;html=1;exitX=1;exitY=0.5;exitDx=0;exitDy=0;entryX=0.5;entryY=1;entryDx=0;entryDy=0;" edge="1" parent="1" source="BZiiT8lt5KZC4wHzGply-61" target="BZiiT8lt5KZC4wHzGply-52">
          <mxGeometry relative="1" as="geometry" />
        </mxCell>
        <mxCell id="BZiiT8lt5KZC4wHzGply-60" style="edgeStyle=orthogonalEdgeStyle;rounded=0;orthogonalLoop=1;jettySize=auto;html=1;exitX=0.5;exitY=1;exitDx=0;exitDy=0;entryX=0.5;entryY=0;entryDx=0;entryDy=0;" edge="1" parent="1" source="BZiiT8lt5KZC4wHzGply-61" target="BZiiT8lt5KZC4wHzGply-62">
          <mxGeometry relative="1" as="geometry" />
        </mxCell>
        <mxCell id="BZiiT8lt5KZC4wHzGply-61" value="a == m" style="rhombus;whiteSpace=wrap;html=1;" vertex="1" parent="1">
          <mxGeometry x="1205" y="520" width="80" height="80" as="geometry" />
        </mxCell>
        <mxCell id="BZiiT8lt5KZC4wHzGply-62" value="END" style="ellipse;whiteSpace=wrap;html=1;" vertex="1" parent="1">
          <mxGeometry x="1185" y="630" width="120" height="80" as="geometry" />
        </mxCell>
        <mxCell id="BZiiT8lt5KZC4wHzGply-63" value="4" style="text;html=1;align=center;verticalAlign=middle;resizable=0;points=[];autosize=1;strokeColor=none;fillColor=none;fontSize=18;" vertex="1" parent="1">
          <mxGeometry x="1130" width="30" height="40" as="geometry" />
        </mxCell>
        <mxCell id="BZiiT8lt5KZC4wHzGply-66" style="edgeStyle=orthogonalEdgeStyle;rounded=0;orthogonalLoop=1;jettySize=auto;html=1;exitX=0.5;exitY=1;exitDx=0;exitDy=0;entryX=0.5;entryY=0;entryDx=0;entryDy=0;fontSize=12;" edge="1" parent="1" source="BZiiT8lt5KZC4wHzGply-64" target="BZiiT8lt5KZC4wHzGply-65">
          <mxGeometry relative="1" as="geometry" />
        </mxCell>
        <mxCell id="BZiiT8lt5KZC4wHzGply-64" value="&lt;font style=&quot;font-size: 12px;&quot;&gt;in: n;&lt;br&gt;in: m;&lt;br&gt;&lt;/font&gt;" style="shape=parallelogram;perimeter=parallelogramPerimeter;whiteSpace=wrap;html=1;fixedSize=1;fontSize=18;" vertex="1" parent="1">
          <mxGeometry x="1185" y="220" width="120" height="60" as="geometry" />
        </mxCell>
        <mxCell id="BZiiT8lt5KZC4wHzGply-67" style="edgeStyle=orthogonalEdgeStyle;rounded=0;orthogonalLoop=1;jettySize=auto;html=1;exitX=0.5;exitY=1;exitDx=0;exitDy=0;entryX=0.5;entryY=0;entryDx=0;entryDy=0;fontSize=12;" edge="1" parent="1" source="BZiiT8lt5KZC4wHzGply-65" target="BZiiT8lt5KZC4wHzGply-58">
          <mxGeometry relative="1" as="geometry" />
        </mxCell>
        <mxCell id="BZiiT8lt5KZC4wHzGply-65" value="n+=a;" style="rounded=0;whiteSpace=wrap;html=1;fontSize=12;" vertex="1" parent="1">
          <mxGeometry x="1185" y="330" width="120" height="60" as="geometry" />
        </mxCell>
        <mxCell id="BZiiT8lt5KZC4wHzGply-69" style="edgeStyle=orthogonalEdgeStyle;rounded=0;orthogonalLoop=1;jettySize=auto;html=1;exitX=0.5;exitY=1;exitDx=0;exitDy=0;entryX=0.5;entryY=0;entryDx=0;entryDy=0;" edge="1" parent="1" source="BZiiT8lt5KZC4wHzGply-70" target="BZiiT8lt5KZC4wHzGply-74">
          <mxGeometry relative="1" as="geometry" />
        </mxCell>
        <mxCell id="BZiiT8lt5KZC4wHzGply-70" value="START" style="ellipse;whiteSpace=wrap;html=1;" vertex="1" parent="1">
          <mxGeometry x="85" y="670" width="120" height="80" as="geometry" />
        </mxCell>
        <mxCell id="BZiiT8lt5KZC4wHzGply-71" style="edgeStyle=orthogonalEdgeStyle;rounded=0;orthogonalLoop=1;jettySize=auto;html=1;exitX=0;exitY=0.5;exitDx=0;exitDy=0;entryX=1;entryY=0.5;entryDx=0;entryDy=0;fontSize=12;" edge="1" parent="1" source="BZiiT8lt5KZC4wHzGply-72" target="BZiiT8lt5KZC4wHzGply-85">
          <mxGeometry relative="1" as="geometry" />
        </mxCell>
        <mxCell id="BZiiT8lt5KZC4wHzGply-72" value="a++;" style="rounded=0;whiteSpace=wrap;html=1;" vertex="1" parent="1">
          <mxGeometry x="255" y="960" width="120" height="60" as="geometry" />
        </mxCell>
        <mxCell id="BZiiT8lt5KZC4wHzGply-73" style="edgeStyle=orthogonalEdgeStyle;rounded=0;orthogonalLoop=1;jettySize=auto;html=1;exitX=0.5;exitY=1;exitDx=0;exitDy=0;entryX=0.5;entryY=0;entryDx=0;entryDy=0;" edge="1" parent="1" source="BZiiT8lt5KZC4wHzGply-74">
          <mxGeometry relative="1" as="geometry">
            <mxPoint x="145" y="850" as="targetPoint" />
          </mxGeometry>
        </mxCell>
        <mxCell id="BZiiT8lt5KZC4wHzGply-74" value="a=1;" style="rounded=0;whiteSpace=wrap;html=1;" vertex="1" parent="1">
          <mxGeometry x="85" y="770" width="120" height="60" as="geometry" />
        </mxCell>
        <mxCell id="BZiiT8lt5KZC4wHzGply-75" style="edgeStyle=orthogonalEdgeStyle;rounded=0;orthogonalLoop=1;jettySize=auto;html=1;exitX=0.5;exitY=1;exitDx=0;exitDy=0;entryX=0.5;entryY=0;entryDx=0;entryDy=0;" edge="1" parent="1" source="BZiiT8lt5KZC4wHzGply-76" target="BZiiT8lt5KZC4wHzGply-79">
          <mxGeometry relative="1" as="geometry" />
        </mxCell>
        <mxCell id="BZiiT8lt5KZC4wHzGply-76" value="out: n" style="shape=parallelogram;perimeter=parallelogramPerimeter;whiteSpace=wrap;html=1;fixedSize=1;" vertex="1" parent="1">
          <mxGeometry x="85" y="1050" width="120" height="60" as="geometry" />
        </mxCell>
        <mxCell id="BZiiT8lt5KZC4wHzGply-77" style="edgeStyle=orthogonalEdgeStyle;rounded=0;orthogonalLoop=1;jettySize=auto;html=1;exitX=1;exitY=0.5;exitDx=0;exitDy=0;entryX=0.5;entryY=1;entryDx=0;entryDy=0;" edge="1" parent="1" source="BZiiT8lt5KZC4wHzGply-79" target="BZiiT8lt5KZC4wHzGply-72">
          <mxGeometry relative="1" as="geometry" />
        </mxCell>
        <mxCell id="BZiiT8lt5KZC4wHzGply-88" style="edgeStyle=orthogonalEdgeStyle;rounded=0;orthogonalLoop=1;jettySize=auto;html=1;exitX=0.5;exitY=1;exitDx=0;exitDy=0;entryX=0.5;entryY=0;entryDx=0;entryDy=0;fontSize=12;" edge="1" parent="1" source="BZiiT8lt5KZC4wHzGply-79" target="BZiiT8lt5KZC4wHzGply-86">
          <mxGeometry relative="1" as="geometry" />
        </mxCell>
        <mxCell id="BZiiT8lt5KZC4wHzGply-79" value="a == m" style="rhombus;whiteSpace=wrap;html=1;" vertex="1" parent="1">
          <mxGeometry x="105" y="1150" width="80" height="80" as="geometry" />
        </mxCell>
        <mxCell id="BZiiT8lt5KZC4wHzGply-80" value="END" style="ellipse;whiteSpace=wrap;html=1;" vertex="1" parent="1">
          <mxGeometry x="85" y="1410" width="120" height="80" as="geometry" />
        </mxCell>
        <mxCell id="BZiiT8lt5KZC4wHzGply-81" value="5" style="text;html=1;align=center;verticalAlign=middle;resizable=0;points=[];autosize=1;strokeColor=none;fillColor=none;fontSize=18;" vertex="1" parent="1">
          <mxGeometry x="30" y="630" width="30" height="40" as="geometry" />
        </mxCell>
        <mxCell id="BZiiT8lt5KZC4wHzGply-82" style="edgeStyle=orthogonalEdgeStyle;rounded=0;orthogonalLoop=1;jettySize=auto;html=1;exitX=0.5;exitY=1;exitDx=0;exitDy=0;entryX=0.5;entryY=0;entryDx=0;entryDy=0;fontSize=12;" edge="1" parent="1" source="BZiiT8lt5KZC4wHzGply-83" target="BZiiT8lt5KZC4wHzGply-85">
          <mxGeometry relative="1" as="geometry" />
        </mxCell>
        <mxCell id="BZiiT8lt5KZC4wHzGply-83" value="&lt;font style=&quot;font-size: 12px;&quot;&gt;in: n;&lt;br&gt;in: m;&lt;br&gt;&lt;/font&gt;" style="shape=parallelogram;perimeter=parallelogramPerimeter;whiteSpace=wrap;html=1;fixedSize=1;fontSize=18;" vertex="1" parent="1">
          <mxGeometry x="85" y="850" width="120" height="60" as="geometry" />
        </mxCell>
        <mxCell id="BZiiT8lt5KZC4wHzGply-84" style="edgeStyle=orthogonalEdgeStyle;rounded=0;orthogonalLoop=1;jettySize=auto;html=1;exitX=0.5;exitY=1;exitDx=0;exitDy=0;entryX=0.5;entryY=0;entryDx=0;entryDy=0;fontSize=12;" edge="1" parent="1" source="BZiiT8lt5KZC4wHzGply-85" target="BZiiT8lt5KZC4wHzGply-76">
          <mxGeometry relative="1" as="geometry" />
        </mxCell>
        <mxCell id="BZiiT8lt5KZC4wHzGply-85" value="n+=a;" style="rounded=0;whiteSpace=wrap;html=1;fontSize=12;" vertex="1" parent="1">
          <mxGeometry x="85" y="960" width="120" height="60" as="geometry" />
        </mxCell>
        <mxCell id="BZiiT8lt5KZC4wHzGply-89" style="edgeStyle=orthogonalEdgeStyle;rounded=0;orthogonalLoop=1;jettySize=auto;html=1;exitX=0.5;exitY=1;exitDx=0;exitDy=0;entryX=0.5;entryY=0;entryDx=0;entryDy=0;fontSize=12;" edge="1" parent="1" source="BZiiT8lt5KZC4wHzGply-86" target="BZiiT8lt5KZC4wHzGply-87">
          <mxGeometry relative="1" as="geometry" />
        </mxCell>
        <mxCell id="BZiiT8lt5KZC4wHzGply-86" value="n=n/(n-m)" style="rounded=0;whiteSpace=wrap;html=1;fontSize=12;" vertex="1" parent="1">
          <mxGeometry x="85" y="1250" width="120" height="60" as="geometry" />
        </mxCell>
        <mxCell id="BZiiT8lt5KZC4wHzGply-90" style="edgeStyle=orthogonalEdgeStyle;rounded=0;orthogonalLoop=1;jettySize=auto;html=1;exitX=0.5;exitY=1;exitDx=0;exitDy=0;entryX=0.5;entryY=0;entryDx=0;entryDy=0;fontSize=12;" edge="1" parent="1" source="BZiiT8lt5KZC4wHzGply-87" target="BZiiT8lt5KZC4wHzGply-80">
          <mxGeometry relative="1" as="geometry" />
        </mxCell>
        <mxCell id="BZiiT8lt5KZC4wHzGply-87" value="out: n" style="shape=parallelogram;perimeter=parallelogramPerimeter;whiteSpace=wrap;html=1;fixedSize=1;fontSize=12;" vertex="1" parent="1">
          <mxGeometry x="85" y="1330" width="120" height="60" as="geometry" />
        </mxCell>
        <mxCell id="BZiiT8lt5KZC4wHzGply-91" value="6" style="text;html=1;align=center;verticalAlign=middle;resizable=0;points=[];autosize=1;strokeColor=none;fillColor=none;fontSize=18;" vertex="1" parent="1">
          <mxGeometry x="410" y="630" width="30" height="40" as="geometry" />
        </mxCell>
        <mxCell id="BZiiT8lt5KZC4wHzGply-98" style="edgeStyle=orthogonalEdgeStyle;rounded=0;orthogonalLoop=1;jettySize=auto;html=1;exitX=0.5;exitY=1;exitDx=0;exitDy=0;entryX=0.5;entryY=0;entryDx=0;entryDy=0;fontSize=12;" edge="1" parent="1" source="BZiiT8lt5KZC4wHzGply-92" target="BZiiT8lt5KZC4wHzGply-93">
          <mxGeometry relative="1" as="geometry" />
        </mxCell>
        <mxCell id="BZiiT8lt5KZC4wHzGply-92" value="START" style="ellipse;whiteSpace=wrap;html=1;" vertex="1" parent="1">
          <mxGeometry x="445" y="660" width="120" height="80" as="geometry" />
        </mxCell>
        <mxCell id="BZiiT8lt5KZC4wHzGply-99" style="edgeStyle=orthogonalEdgeStyle;rounded=0;orthogonalLoop=1;jettySize=auto;html=1;exitX=0.5;exitY=1;exitDx=0;exitDy=0;entryX=0.5;entryY=0;entryDx=0;entryDy=0;fontSize=12;" edge="1" parent="1" source="BZiiT8lt5KZC4wHzGply-93" target="BZiiT8lt5KZC4wHzGply-94">
          <mxGeometry relative="1" as="geometry" />
        </mxCell>
        <mxCell id="BZiiT8lt5KZC4wHzGply-93" value="in: n;&lt;br&gt;in: m;" style="shape=parallelogram;perimeter=parallelogramPerimeter;whiteSpace=wrap;html=1;fixedSize=1;fontSize=12;" vertex="1" parent="1">
          <mxGeometry x="445" y="790" width="120" height="60" as="geometry" />
        </mxCell>
        <mxCell id="BZiiT8lt5KZC4wHzGply-101" style="edgeStyle=orthogonalEdgeStyle;rounded=0;orthogonalLoop=1;jettySize=auto;html=1;exitX=0.5;exitY=1;exitDx=0;exitDy=0;entryX=0.5;entryY=0;entryDx=0;entryDy=0;fontSize=12;" edge="1" parent="1" source="BZiiT8lt5KZC4wHzGply-94" target="BZiiT8lt5KZC4wHzGply-100">
          <mxGeometry relative="1" as="geometry" />
        </mxCell>
        <mxCell id="BZiiT8lt5KZC4wHzGply-94" value="a=0;" style="rounded=0;whiteSpace=wrap;html=1;fontSize=12;" vertex="1" parent="1">
          <mxGeometry x="445" y="900" width="120" height="60" as="geometry" />
        </mxCell>
        <mxCell id="BZiiT8lt5KZC4wHzGply-108" style="edgeStyle=orthogonalEdgeStyle;rounded=0;orthogonalLoop=1;jettySize=auto;html=1;exitX=0;exitY=0.5;exitDx=0;exitDy=0;entryX=1;entryY=0.5;entryDx=0;entryDy=0;fontSize=12;" edge="1" parent="1" source="BZiiT8lt5KZC4wHzGply-95" target="BZiiT8lt5KZC4wHzGply-96">
          <mxGeometry relative="1" as="geometry" />
        </mxCell>
        <mxCell id="BZiiT8lt5KZC4wHzGply-95" value="a+=n;" style="rounded=0;whiteSpace=wrap;html=1;fontSize=12;" vertex="1" parent="1">
          <mxGeometry x="805" y="900" width="120" height="60" as="geometry" />
        </mxCell>
        <mxCell id="BZiiT8lt5KZC4wHzGply-106" style="edgeStyle=orthogonalEdgeStyle;rounded=0;orthogonalLoop=1;jettySize=auto;html=1;exitX=0.5;exitY=0;exitDx=0;exitDy=0;entryX=0.5;entryY=1;entryDx=0;entryDy=0;fontSize=12;" edge="1" parent="1" source="BZiiT8lt5KZC4wHzGply-96" target="BZiiT8lt5KZC4wHzGply-97">
          <mxGeometry relative="1" as="geometry" />
        </mxCell>
        <mxCell id="BZiiT8lt5KZC4wHzGply-96" value="n++;" style="rounded=0;whiteSpace=wrap;html=1;fontSize=12;" vertex="1" parent="1">
          <mxGeometry x="640" y="900" width="120" height="60" as="geometry" />
        </mxCell>
        <mxCell id="BZiiT8lt5KZC4wHzGply-107" style="edgeStyle=orthogonalEdgeStyle;rounded=0;orthogonalLoop=1;jettySize=auto;html=1;exitX=0;exitY=0.5;exitDx=0;exitDy=0;entryX=1;entryY=0;entryDx=0;entryDy=0;fontSize=12;" edge="1" parent="1" source="BZiiT8lt5KZC4wHzGply-97" target="BZiiT8lt5KZC4wHzGply-100">
          <mxGeometry relative="1" as="geometry">
            <Array as="points">
              <mxPoint x="600" y="850" />
              <mxPoint x="600" y="1020" />
            </Array>
          </mxGeometry>
        </mxCell>
        <mxCell id="BZiiT8lt5KZC4wHzGply-97" value="a++;" style="rounded=0;whiteSpace=wrap;html=1;fontSize=12;" vertex="1" parent="1">
          <mxGeometry x="640" y="820" width="120" height="60" as="geometry" />
        </mxCell>
        <mxCell id="BZiiT8lt5KZC4wHzGply-103" style="edgeStyle=orthogonalEdgeStyle;rounded=0;orthogonalLoop=1;jettySize=auto;html=1;exitX=1;exitY=0.5;exitDx=0;exitDy=0;entryX=0;entryY=0.5;entryDx=0;entryDy=0;fontSize=12;" edge="1" parent="1" source="BZiiT8lt5KZC4wHzGply-100" target="BZiiT8lt5KZC4wHzGply-102">
          <mxGeometry relative="1" as="geometry" />
        </mxCell>
        <mxCell id="BZiiT8lt5KZC4wHzGply-112" style="edgeStyle=orthogonalEdgeStyle;rounded=0;orthogonalLoop=1;jettySize=auto;html=1;exitX=0.5;exitY=1;exitDx=0;exitDy=0;entryX=0.5;entryY=0;entryDx=0;entryDy=0;fontSize=12;" edge="1" parent="1" source="BZiiT8lt5KZC4wHzGply-100" target="BZiiT8lt5KZC4wHzGply-110">
          <mxGeometry relative="1" as="geometry" />
        </mxCell>
        <mxCell id="BZiiT8lt5KZC4wHzGply-100" value="n &amp;lt; m" style="rhombus;whiteSpace=wrap;html=1;fontSize=12;" vertex="1" parent="1">
          <mxGeometry x="465" y="1000" width="80" height="80" as="geometry" />
        </mxCell>
        <mxCell id="BZiiT8lt5KZC4wHzGply-104" style="edgeStyle=orthogonalEdgeStyle;rounded=0;orthogonalLoop=1;jettySize=auto;html=1;exitX=0.5;exitY=0;exitDx=0;exitDy=0;entryX=0.5;entryY=1;entryDx=0;entryDy=0;fontSize=12;" edge="1" parent="1" source="BZiiT8lt5KZC4wHzGply-102" target="BZiiT8lt5KZC4wHzGply-96">
          <mxGeometry relative="1" as="geometry" />
        </mxCell>
        <mxCell id="BZiiT8lt5KZC4wHzGply-109" style="edgeStyle=orthogonalEdgeStyle;rounded=0;orthogonalLoop=1;jettySize=auto;html=1;exitX=1;exitY=0.5;exitDx=0;exitDy=0;entryX=0.5;entryY=1;entryDx=0;entryDy=0;fontSize=12;" edge="1" parent="1" source="BZiiT8lt5KZC4wHzGply-102" target="BZiiT8lt5KZC4wHzGply-95">
          <mxGeometry relative="1" as="geometry" />
        </mxCell>
        <mxCell id="BZiiT8lt5KZC4wHzGply-102" value="n%5=0" style="rhombus;whiteSpace=wrap;html=1;fontSize=12;" vertex="1" parent="1">
          <mxGeometry x="660" y="1000" width="80" height="80" as="geometry" />
        </mxCell>
        <mxCell id="BZiiT8lt5KZC4wHzGply-113" style="edgeStyle=orthogonalEdgeStyle;rounded=0;orthogonalLoop=1;jettySize=auto;html=1;exitX=0.5;exitY=1;exitDx=0;exitDy=0;entryX=0.5;entryY=0;entryDx=0;entryDy=0;fontSize=12;" edge="1" parent="1" source="BZiiT8lt5KZC4wHzGply-110" target="BZiiT8lt5KZC4wHzGply-111">
          <mxGeometry relative="1" as="geometry" />
        </mxCell>
        <mxCell id="BZiiT8lt5KZC4wHzGply-110" value="out: a" style="shape=parallelogram;perimeter=parallelogramPerimeter;whiteSpace=wrap;html=1;fixedSize=1;fontSize=12;" vertex="1" parent="1">
          <mxGeometry x="445" y="1110" width="120" height="60" as="geometry" />
        </mxCell>
        <mxCell id="BZiiT8lt5KZC4wHzGply-111" value="END" style="ellipse;whiteSpace=wrap;html=1;" vertex="1" parent="1">
          <mxGeometry x="445" y="1220" width="120" height="80" as="geometry" />
        </mxCell>
        <mxCell id="BZiiT8lt5KZC4wHzGply-114" value="T" style="text;html=1;align=center;verticalAlign=middle;resizable=0;points=[];autosize=1;strokeColor=none;fillColor=none;fontSize=12;" vertex="1" parent="1">
          <mxGeometry x="795" y="1005" width="30" height="30" as="geometry" />
        </mxCell>
        <mxCell id="BZiiT8lt5KZC4wHzGply-115" value="F" style="text;html=1;align=center;verticalAlign=middle;resizable=0;points=[];autosize=1;strokeColor=none;fillColor=none;fontSize=12;" vertex="1" parent="1">
          <mxGeometry x="705" y="975" width="30" height="30" as="geometry" />
        </mxCell>
        <mxCell id="BZiiT8lt5KZC4wHzGply-116" value="7" style="text;html=1;align=center;verticalAlign=middle;resizable=0;points=[];autosize=1;strokeColor=none;fillColor=none;fontSize=18;" vertex="1" parent="1">
          <mxGeometry x="975" y="720" width="30" height="40" as="geometry" />
        </mxCell>
        <mxCell id="BZiiT8lt5KZC4wHzGply-119" style="edgeStyle=orthogonalEdgeStyle;rounded=0;orthogonalLoop=1;jettySize=auto;html=1;exitX=0.5;exitY=1;exitDx=0;exitDy=0;entryX=0.5;entryY=0;entryDx=0;entryDy=0;fontSize=12;" edge="1" parent="1" source="BZiiT8lt5KZC4wHzGply-117" target="BZiiT8lt5KZC4wHzGply-118">
          <mxGeometry relative="1" as="geometry" />
        </mxCell>
        <mxCell id="BZiiT8lt5KZC4wHzGply-117" value="START" style="ellipse;whiteSpace=wrap;html=1;" vertex="1" parent="1">
          <mxGeometry x="1010" y="750" width="120" height="80" as="geometry" />
        </mxCell>
        <mxCell id="BZiiT8lt5KZC4wHzGply-126" style="edgeStyle=orthogonalEdgeStyle;rounded=0;orthogonalLoop=1;jettySize=auto;html=1;exitX=0.5;exitY=1;exitDx=0;exitDy=0;entryX=0.5;entryY=0;entryDx=0;entryDy=0;fontSize=12;" edge="1" parent="1" source="BZiiT8lt5KZC4wHzGply-118" target="BZiiT8lt5KZC4wHzGply-121">
          <mxGeometry relative="1" as="geometry" />
        </mxCell>
        <mxCell id="BZiiT8lt5KZC4wHzGply-118" value="a=0&lt;br&gt;b=0" style="rounded=0;whiteSpace=wrap;html=1;fontSize=12;" vertex="1" parent="1">
          <mxGeometry x="1010" y="870" width="120" height="60" as="geometry" />
        </mxCell>
        <mxCell id="BZiiT8lt5KZC4wHzGply-128" style="edgeStyle=orthogonalEdgeStyle;rounded=0;orthogonalLoop=1;jettySize=auto;html=1;exitX=0.5;exitY=1;exitDx=0;exitDy=0;entryX=0.457;entryY=0.007;entryDx=0;entryDy=0;entryPerimeter=0;fontSize=12;" edge="1" parent="1" source="BZiiT8lt5KZC4wHzGply-120" target="BZiiT8lt5KZC4wHzGply-123">
          <mxGeometry relative="1" as="geometry" />
        </mxCell>
        <mxCell id="BZiiT8lt5KZC4wHzGply-132" style="edgeStyle=orthogonalEdgeStyle;rounded=0;orthogonalLoop=1;jettySize=auto;html=1;exitX=1;exitY=0.5;exitDx=0;exitDy=0;entryX=0.5;entryY=1;entryDx=0;entryDy=0;fontSize=12;" edge="1" parent="1" source="BZiiT8lt5KZC4wHzGply-120" target="BZiiT8lt5KZC4wHzGply-122">
          <mxGeometry relative="1" as="geometry" />
        </mxCell>
        <mxCell id="BZiiT8lt5KZC4wHzGply-120" value="a&amp;amp;7=0" style="rhombus;whiteSpace=wrap;html=1;fontSize=12;" vertex="1" parent="1">
          <mxGeometry x="1030" y="1070" width="80" height="80" as="geometry" />
        </mxCell>
        <mxCell id="BZiiT8lt5KZC4wHzGply-127" style="edgeStyle=orthogonalEdgeStyle;rounded=0;orthogonalLoop=1;jettySize=auto;html=1;exitX=0.5;exitY=1;exitDx=0;exitDy=0;entryX=0.5;entryY=0;entryDx=0;entryDy=0;fontSize=12;" edge="1" parent="1" source="BZiiT8lt5KZC4wHzGply-121" target="BZiiT8lt5KZC4wHzGply-120">
          <mxGeometry relative="1" as="geometry" />
        </mxCell>
        <mxCell id="BZiiT8lt5KZC4wHzGply-129" style="edgeStyle=orthogonalEdgeStyle;rounded=0;orthogonalLoop=1;jettySize=auto;html=1;exitX=0;exitY=0.5;exitDx=0;exitDy=0;entryX=0;entryY=0.5;entryDx=0;entryDy=0;fontSize=12;" edge="1" parent="1" source="BZiiT8lt5KZC4wHzGply-121" target="BZiiT8lt5KZC4wHzGply-124">
          <mxGeometry relative="1" as="geometry">
            <Array as="points">
              <mxPoint x="940" y="1000" />
              <mxPoint x="940" y="1310" />
            </Array>
          </mxGeometry>
        </mxCell>
        <mxCell id="BZiiT8lt5KZC4wHzGply-121" value="a==2021" style="rhombus;whiteSpace=wrap;html=1;fontSize=12;" vertex="1" parent="1">
          <mxGeometry x="1030" y="960" width="80" height="80" as="geometry" />
        </mxCell>
        <mxCell id="BZiiT8lt5KZC4wHzGply-130" style="edgeStyle=orthogonalEdgeStyle;rounded=0;orthogonalLoop=1;jettySize=auto;html=1;exitX=0;exitY=0.5;exitDx=0;exitDy=0;entryX=1;entryY=0.5;entryDx=0;entryDy=0;fontSize=12;" edge="1" parent="1" source="BZiiT8lt5KZC4wHzGply-122" target="BZiiT8lt5KZC4wHzGply-121">
          <mxGeometry relative="1" as="geometry" />
        </mxCell>
        <mxCell id="BZiiT8lt5KZC4wHzGply-122" value="a++" style="rounded=0;whiteSpace=wrap;html=1;fontSize=12;" vertex="1" parent="1">
          <mxGeometry x="1185" y="970" width="120" height="60" as="geometry" />
        </mxCell>
        <mxCell id="BZiiT8lt5KZC4wHzGply-133" style="edgeStyle=orthogonalEdgeStyle;rounded=0;orthogonalLoop=1;jettySize=auto;html=1;exitX=1;exitY=0.5;exitDx=0;exitDy=0;entryX=0.5;entryY=1;entryDx=0;entryDy=0;fontSize=12;" edge="1" parent="1" source="BZiiT8lt5KZC4wHzGply-123" target="BZiiT8lt5KZC4wHzGply-122">
          <mxGeometry relative="1" as="geometry" />
        </mxCell>
        <mxCell id="BZiiT8lt5KZC4wHzGply-123" value="b++" style="rounded=0;whiteSpace=wrap;html=1;fontSize=12;" vertex="1" parent="1">
          <mxGeometry x="1015" y="1190" width="120" height="60" as="geometry" />
        </mxCell>
        <mxCell id="BZiiT8lt5KZC4wHzGply-131" style="edgeStyle=orthogonalEdgeStyle;rounded=0;orthogonalLoop=1;jettySize=auto;html=1;exitX=1;exitY=0.5;exitDx=0;exitDy=0;entryX=0;entryY=0.5;entryDx=0;entryDy=0;fontSize=12;" edge="1" parent="1" source="BZiiT8lt5KZC4wHzGply-124" target="BZiiT8lt5KZC4wHzGply-125">
          <mxGeometry relative="1" as="geometry" />
        </mxCell>
        <mxCell id="BZiiT8lt5KZC4wHzGply-124" value="out: b" style="shape=parallelogram;perimeter=parallelogramPerimeter;whiteSpace=wrap;html=1;fixedSize=1;fontSize=12;" vertex="1" parent="1">
          <mxGeometry x="1005" y="1280" width="120" height="60" as="geometry" />
        </mxCell>
        <mxCell id="BZiiT8lt5KZC4wHzGply-125" value="END" style="ellipse;whiteSpace=wrap;html=1;fontSize=12;" vertex="1" parent="1">
          <mxGeometry x="1150" y="1270" width="120" height="80" as="geometry" />
        </mxCell>
        <mxCell id="BZiiT8lt5KZC4wHzGply-134" value="8" style="text;html=1;align=center;verticalAlign=middle;resizable=0;points=[];autosize=1;strokeColor=none;fillColor=none;fontSize=18;" vertex="1" parent="1">
          <mxGeometry x="30" y="1560" width="30" height="40" as="geometry" />
        </mxCell>
        <mxCell id="BZiiT8lt5KZC4wHzGply-137" style="edgeStyle=orthogonalEdgeStyle;rounded=0;orthogonalLoop=1;jettySize=auto;html=1;exitX=0.5;exitY=1;exitDx=0;exitDy=0;entryX=0.5;entryY=0;entryDx=0;entryDy=0;fontSize=12;" edge="1" parent="1" source="BZiiT8lt5KZC4wHzGply-135" target="BZiiT8lt5KZC4wHzGply-136">
          <mxGeometry relative="1" as="geometry" />
        </mxCell>
        <mxCell id="BZiiT8lt5KZC4wHzGply-135" value="START" style="ellipse;whiteSpace=wrap;html=1;" vertex="1" parent="1">
          <mxGeometry x="65" y="1590" width="120" height="80" as="geometry" />
        </mxCell>
        <mxCell id="BZiiT8lt5KZC4wHzGply-145" style="edgeStyle=orthogonalEdgeStyle;rounded=0;orthogonalLoop=1;jettySize=auto;html=1;exitX=0.5;exitY=1;exitDx=0;exitDy=0;entryX=0.5;entryY=0;entryDx=0;entryDy=0;fontSize=12;" edge="1" parent="1" source="BZiiT8lt5KZC4wHzGply-136" target="BZiiT8lt5KZC4wHzGply-144">
          <mxGeometry relative="1" as="geometry" />
        </mxCell>
        <mxCell id="BZiiT8lt5KZC4wHzGply-136" value="in: m&lt;br&gt;in: n" style="shape=parallelogram;perimeter=parallelogramPerimeter;whiteSpace=wrap;html=1;fixedSize=1;fontSize=12;" vertex="1" parent="1">
          <mxGeometry x="65" y="1710" width="120" height="60" as="geometry" />
        </mxCell>
        <mxCell id="BZiiT8lt5KZC4wHzGply-148" style="edgeStyle=orthogonalEdgeStyle;rounded=0;orthogonalLoop=1;jettySize=auto;html=1;exitX=0.5;exitY=1;exitDx=0;exitDy=0;entryX=0.5;entryY=0;entryDx=0;entryDy=0;fontSize=12;" edge="1" parent="1" source="BZiiT8lt5KZC4wHzGply-138" target="BZiiT8lt5KZC4wHzGply-139">
          <mxGeometry relative="1" as="geometry" />
        </mxCell>
        <mxCell id="BZiiT8lt5KZC4wHzGply-154" style="edgeStyle=orthogonalEdgeStyle;rounded=0;orthogonalLoop=1;jettySize=auto;html=1;exitX=0;exitY=0.5;exitDx=0;exitDy=0;entryX=0;entryY=0.75;entryDx=0;entryDy=0;fontSize=12;" edge="1" parent="1" source="BZiiT8lt5KZC4wHzGply-138" target="BZiiT8lt5KZC4wHzGply-140">
          <mxGeometry relative="1" as="geometry">
            <Array as="points">
              <mxPoint x="40" y="1950" />
              <mxPoint x="40" y="2314" />
            </Array>
          </mxGeometry>
        </mxCell>
        <mxCell id="BZiiT8lt5KZC4wHzGply-138" value="n==m" style="rhombus;whiteSpace=wrap;html=1;fontSize=12;" vertex="1" parent="1">
          <mxGeometry x="85" y="1910" width="80" height="80" as="geometry" />
        </mxCell>
        <mxCell id="BZiiT8lt5KZC4wHzGply-149" style="edgeStyle=orthogonalEdgeStyle;rounded=0;orthogonalLoop=1;jettySize=auto;html=1;exitX=1;exitY=0.5;exitDx=0;exitDy=0;entryX=0.5;entryY=1;entryDx=0;entryDy=0;fontSize=12;" edge="1" parent="1" source="BZiiT8lt5KZC4wHzGply-139" target="BZiiT8lt5KZC4wHzGply-146">
          <mxGeometry relative="1" as="geometry" />
        </mxCell>
        <mxCell id="BZiiT8lt5KZC4wHzGply-151" style="edgeStyle=orthogonalEdgeStyle;rounded=0;orthogonalLoop=1;jettySize=auto;html=1;exitX=0.5;exitY=1;exitDx=0;exitDy=0;entryX=0.5;entryY=0;entryDx=0;entryDy=0;fontSize=12;" edge="1" parent="1" source="BZiiT8lt5KZC4wHzGply-139" target="BZiiT8lt5KZC4wHzGply-150">
          <mxGeometry relative="1" as="geometry" />
        </mxCell>
        <mxCell id="BZiiT8lt5KZC4wHzGply-139" value="n&amp;amp;7=0" style="rhombus;whiteSpace=wrap;html=1;fontSize=12;" vertex="1" parent="1">
          <mxGeometry x="85" y="2030" width="80" height="80" as="geometry" />
        </mxCell>
        <mxCell id="BZiiT8lt5KZC4wHzGply-155" style="edgeStyle=orthogonalEdgeStyle;rounded=0;orthogonalLoop=1;jettySize=auto;html=1;exitX=1;exitY=0.5;exitDx=0;exitDy=0;entryX=0;entryY=0.5;entryDx=0;entryDy=0;fontSize=12;" edge="1" parent="1" source="BZiiT8lt5KZC4wHzGply-140" target="BZiiT8lt5KZC4wHzGply-141">
          <mxGeometry relative="1" as="geometry" />
        </mxCell>
        <mxCell id="BZiiT8lt5KZC4wHzGply-140" value="out: a" style="shape=parallelogram;perimeter=parallelogramPerimeter;whiteSpace=wrap;html=1;fixedSize=1;fontSize=12;" vertex="1" parent="1">
          <mxGeometry x="65" y="2270" width="120" height="60" as="geometry" />
        </mxCell>
        <mxCell id="BZiiT8lt5KZC4wHzGply-141" value="END" style="ellipse;whiteSpace=wrap;html=1;fontSize=12;" vertex="1" parent="1">
          <mxGeometry x="230" y="2260" width="120" height="80" as="geometry" />
        </mxCell>
        <mxCell id="BZiiT8lt5KZC4wHzGply-147" style="edgeStyle=orthogonalEdgeStyle;rounded=0;orthogonalLoop=1;jettySize=auto;html=1;exitX=0.5;exitY=1;exitDx=0;exitDy=0;entryX=0.5;entryY=0;entryDx=0;entryDy=0;fontSize=12;" edge="1" parent="1" source="BZiiT8lt5KZC4wHzGply-144" target="BZiiT8lt5KZC4wHzGply-138">
          <mxGeometry relative="1" as="geometry" />
        </mxCell>
        <mxCell id="BZiiT8lt5KZC4wHzGply-144" value="a=0" style="rounded=0;whiteSpace=wrap;html=1;fontSize=12;" vertex="1" parent="1">
          <mxGeometry x="65" y="1810" width="120" height="60" as="geometry" />
        </mxCell>
        <mxCell id="BZiiT8lt5KZC4wHzGply-153" style="edgeStyle=orthogonalEdgeStyle;rounded=0;orthogonalLoop=1;jettySize=auto;html=1;exitX=0;exitY=0.5;exitDx=0;exitDy=0;entryX=1;entryY=0.5;entryDx=0;entryDy=0;fontSize=12;" edge="1" parent="1" source="BZiiT8lt5KZC4wHzGply-146" target="BZiiT8lt5KZC4wHzGply-138">
          <mxGeometry relative="1" as="geometry" />
        </mxCell>
        <mxCell id="BZiiT8lt5KZC4wHzGply-146" value="n++" style="rounded=0;whiteSpace=wrap;html=1;fontSize=12;" vertex="1" parent="1">
          <mxGeometry x="280" y="1920" width="120" height="60" as="geometry" />
        </mxCell>
        <mxCell id="BZiiT8lt5KZC4wHzGply-152" style="edgeStyle=orthogonalEdgeStyle;rounded=0;orthogonalLoop=1;jettySize=auto;html=1;exitX=1;exitY=0.5;exitDx=0;exitDy=0;fontSize=12;" edge="1" parent="1" source="BZiiT8lt5KZC4wHzGply-150">
          <mxGeometry relative="1" as="geometry">
            <mxPoint x="340" y="1980" as="targetPoint" />
          </mxGeometry>
        </mxCell>
        <mxCell id="BZiiT8lt5KZC4wHzGply-150" value="a++" style="rounded=0;whiteSpace=wrap;html=1;fontSize=12;" vertex="1" parent="1">
          <mxGeometry x="65" y="2160" width="120" height="60" as="geometry" />
        </mxCell>
        <mxCell id="BZiiT8lt5KZC4wHzGply-156" value="9" style="text;html=1;align=center;verticalAlign=middle;resizable=0;points=[];autosize=1;strokeColor=none;fillColor=none;fontSize=18;" vertex="1" parent="1">
          <mxGeometry x="515" y="1580" width="30" height="40" as="geometry" />
        </mxCell>
        <mxCell id="BZiiT8lt5KZC4wHzGply-157" style="edgeStyle=orthogonalEdgeStyle;rounded=0;orthogonalLoop=1;jettySize=auto;html=1;exitX=0.5;exitY=1;exitDx=0;exitDy=0;entryX=0.5;entryY=0;entryDx=0;entryDy=0;fontSize=12;" edge="1" parent="1" source="BZiiT8lt5KZC4wHzGply-158" target="BZiiT8lt5KZC4wHzGply-160">
          <mxGeometry relative="1" as="geometry" />
        </mxCell>
        <mxCell id="BZiiT8lt5KZC4wHzGply-158" value="START" style="ellipse;whiteSpace=wrap;html=1;" vertex="1" parent="1">
          <mxGeometry x="550" y="1610" width="120" height="80" as="geometry" />
        </mxCell>
        <mxCell id="BZiiT8lt5KZC4wHzGply-159" style="edgeStyle=orthogonalEdgeStyle;rounded=0;orthogonalLoop=1;jettySize=auto;html=1;exitX=0.5;exitY=1;exitDx=0;exitDy=0;entryX=0.5;entryY=0;entryDx=0;entryDy=0;fontSize=12;" edge="1" parent="1" source="BZiiT8lt5KZC4wHzGply-160" target="BZiiT8lt5KZC4wHzGply-171">
          <mxGeometry relative="1" as="geometry" />
        </mxCell>
        <mxCell id="BZiiT8lt5KZC4wHzGply-160" value="in: m&lt;br&gt;in: n" style="shape=parallelogram;perimeter=parallelogramPerimeter;whiteSpace=wrap;html=1;fixedSize=1;fontSize=12;" vertex="1" parent="1">
          <mxGeometry x="550" y="1730" width="120" height="60" as="geometry" />
        </mxCell>
        <mxCell id="BZiiT8lt5KZC4wHzGply-161" style="edgeStyle=orthogonalEdgeStyle;rounded=0;orthogonalLoop=1;jettySize=auto;html=1;exitX=0.5;exitY=1;exitDx=0;exitDy=0;entryX=0.5;entryY=0;entryDx=0;entryDy=0;fontSize=12;" edge="1" parent="1" source="BZiiT8lt5KZC4wHzGply-163" target="BZiiT8lt5KZC4wHzGply-166">
          <mxGeometry relative="1" as="geometry" />
        </mxCell>
        <mxCell id="BZiiT8lt5KZC4wHzGply-162" style="edgeStyle=orthogonalEdgeStyle;rounded=0;orthogonalLoop=1;jettySize=auto;html=1;exitX=0;exitY=0.5;exitDx=0;exitDy=0;entryX=0;entryY=0.75;entryDx=0;entryDy=0;fontSize=12;" edge="1" parent="1" source="BZiiT8lt5KZC4wHzGply-163" target="BZiiT8lt5KZC4wHzGply-168">
          <mxGeometry relative="1" as="geometry">
            <Array as="points">
              <mxPoint x="525" y="1970" />
              <mxPoint x="525" y="2334" />
            </Array>
          </mxGeometry>
        </mxCell>
        <mxCell id="BZiiT8lt5KZC4wHzGply-163" value="i&amp;lt;m" style="rhombus;whiteSpace=wrap;html=1;fontSize=12;" vertex="1" parent="1">
          <mxGeometry x="570" y="1930" width="80" height="80" as="geometry" />
        </mxCell>
        <mxCell id="BZiiT8lt5KZC4wHzGply-165" style="edgeStyle=orthogonalEdgeStyle;rounded=0;orthogonalLoop=1;jettySize=auto;html=1;exitX=0.5;exitY=1;exitDx=0;exitDy=0;entryX=0.5;entryY=0;entryDx=0;entryDy=0;fontSize=12;" edge="1" parent="1" source="BZiiT8lt5KZC4wHzGply-166" target="BZiiT8lt5KZC4wHzGply-175">
          <mxGeometry relative="1" as="geometry" />
        </mxCell>
        <mxCell id="BZiiT8lt5KZC4wHzGply-178" style="edgeStyle=orthogonalEdgeStyle;rounded=0;orthogonalLoop=1;jettySize=auto;html=1;exitX=1;exitY=0.5;exitDx=0;exitDy=0;entryX=0;entryY=0.5;entryDx=0;entryDy=0;fontSize=12;" edge="1" parent="1" source="BZiiT8lt5KZC4wHzGply-166" target="BZiiT8lt5KZC4wHzGply-176">
          <mxGeometry relative="1" as="geometry" />
        </mxCell>
        <mxCell id="BZiiT8lt5KZC4wHzGply-179" style="edgeStyle=orthogonalEdgeStyle;rounded=0;orthogonalLoop=1;jettySize=auto;html=1;exitX=1;exitY=0;exitDx=0;exitDy=0;entryX=0.25;entryY=1;entryDx=0;entryDy=0;fontSize=12;" edge="1" parent="1" source="BZiiT8lt5KZC4wHzGply-166" target="BZiiT8lt5KZC4wHzGply-173">
          <mxGeometry relative="1" as="geometry">
            <Array as="points">
              <mxPoint x="630" y="2030" />
              <mxPoint x="795" y="2030" />
            </Array>
          </mxGeometry>
        </mxCell>
        <mxCell id="BZiiT8lt5KZC4wHzGply-166" value="sqrt(i)*&lt;br&gt;sqrt(i)==i" style="rhombus;whiteSpace=wrap;html=1;fontSize=12;" vertex="1" parent="1">
          <mxGeometry x="570" y="2050" width="80" height="80" as="geometry" />
        </mxCell>
        <mxCell id="BZiiT8lt5KZC4wHzGply-167" style="edgeStyle=orthogonalEdgeStyle;rounded=0;orthogonalLoop=1;jettySize=auto;html=1;exitX=1;exitY=0.5;exitDx=0;exitDy=0;entryX=0;entryY=0.5;entryDx=0;entryDy=0;fontSize=12;" edge="1" parent="1" source="BZiiT8lt5KZC4wHzGply-168" target="BZiiT8lt5KZC4wHzGply-169">
          <mxGeometry relative="1" as="geometry" />
        </mxCell>
        <mxCell id="BZiiT8lt5KZC4wHzGply-168" value="out: a" style="shape=parallelogram;perimeter=parallelogramPerimeter;whiteSpace=wrap;html=1;fixedSize=1;fontSize=12;" vertex="1" parent="1">
          <mxGeometry x="550" y="2290" width="120" height="60" as="geometry" />
        </mxCell>
        <mxCell id="BZiiT8lt5KZC4wHzGply-169" value="END" style="ellipse;whiteSpace=wrap;html=1;fontSize=12;" vertex="1" parent="1">
          <mxGeometry x="715" y="2280" width="120" height="80" as="geometry" />
        </mxCell>
        <mxCell id="BZiiT8lt5KZC4wHzGply-170" style="edgeStyle=orthogonalEdgeStyle;rounded=0;orthogonalLoop=1;jettySize=auto;html=1;exitX=0.5;exitY=1;exitDx=0;exitDy=0;entryX=0.5;entryY=0;entryDx=0;entryDy=0;fontSize=12;" edge="1" parent="1" source="BZiiT8lt5KZC4wHzGply-171" target="BZiiT8lt5KZC4wHzGply-163">
          <mxGeometry relative="1" as="geometry" />
        </mxCell>
        <mxCell id="BZiiT8lt5KZC4wHzGply-171" value="a=0, i=n" style="rounded=0;whiteSpace=wrap;html=1;fontSize=12;" vertex="1" parent="1">
          <mxGeometry x="550" y="1830" width="120" height="60" as="geometry" />
        </mxCell>
        <mxCell id="BZiiT8lt5KZC4wHzGply-172" style="edgeStyle=orthogonalEdgeStyle;rounded=0;orthogonalLoop=1;jettySize=auto;html=1;exitX=0;exitY=0.5;exitDx=0;exitDy=0;entryX=1;entryY=0.5;entryDx=0;entryDy=0;fontSize=12;" edge="1" parent="1" source="BZiiT8lt5KZC4wHzGply-173" target="BZiiT8lt5KZC4wHzGply-163">
          <mxGeometry relative="1" as="geometry" />
        </mxCell>
        <mxCell id="BZiiT8lt5KZC4wHzGply-173" value="i++" style="rounded=0;whiteSpace=wrap;html=1;fontSize=12;" vertex="1" parent="1">
          <mxGeometry x="765" y="1940" width="120" height="60" as="geometry" />
        </mxCell>
        <mxCell id="BZiiT8lt5KZC4wHzGply-175" value="a++" style="rounded=0;whiteSpace=wrap;html=1;fontSize=12;" vertex="1" parent="1">
          <mxGeometry x="550" y="2180" width="120" height="60" as="geometry" />
        </mxCell>
        <mxCell id="BZiiT8lt5KZC4wHzGply-177" style="edgeStyle=orthogonalEdgeStyle;rounded=0;orthogonalLoop=1;jettySize=auto;html=1;exitX=0.5;exitY=0;exitDx=0;exitDy=0;entryX=0.5;entryY=1;entryDx=0;entryDy=0;fontSize=12;" edge="1" parent="1" source="BZiiT8lt5KZC4wHzGply-176" target="BZiiT8lt5KZC4wHzGply-173">
          <mxGeometry relative="1" as="geometry" />
        </mxCell>
        <mxCell id="BZiiT8lt5KZC4wHzGply-176" value="a++" style="rounded=0;whiteSpace=wrap;html=1;fontSize=12;" vertex="1" parent="1">
          <mxGeometry x="765" y="2060" width="120" height="60" as="geometry" />
        </mxCell>
        <mxCell id="BZiiT8lt5KZC4wHzGply-180" value="F" style="text;html=1;align=center;verticalAlign=middle;resizable=0;points=[];autosize=1;strokeColor=none;fillColor=none;fontSize=12;" vertex="1" parent="1">
          <mxGeometry x="695" y="2005" width="30" height="30" as="geometry" />
        </mxCell>
        <mxCell id="BZiiT8lt5KZC4wHzGply-181" value="T" style="text;html=1;align=center;verticalAlign=middle;resizable=0;points=[];autosize=1;strokeColor=none;fillColor=none;fontSize=12;" vertex="1" parent="1">
          <mxGeometry x="685" y="2065" width="30" height="30" as="geometry" />
        </mxCell>
        <mxCell id="BZiiT8lt5KZC4wHzGply-182" value="10" style="text;html=1;align=center;verticalAlign=middle;resizable=0;points=[];autosize=1;strokeColor=none;fillColor=none;fontSize=18;" vertex="1" parent="1">
          <mxGeometry x="925" y="1580" width="40" height="40" as="geometry" />
        </mxCell>
        <mxCell id="BZiiT8lt5KZC4wHzGply-183" style="edgeStyle=orthogonalEdgeStyle;rounded=0;orthogonalLoop=1;jettySize=auto;html=1;exitX=0.5;exitY=1;exitDx=0;exitDy=0;entryX=0.5;entryY=0;entryDx=0;entryDy=0;fontSize=12;" edge="1" parent="1" source="BZiiT8lt5KZC4wHzGply-184" target="BZiiT8lt5KZC4wHzGply-185">
          <mxGeometry relative="1" as="geometry" />
        </mxCell>
        <mxCell id="BZiiT8lt5KZC4wHzGply-184" value="START" style="ellipse;whiteSpace=wrap;html=1;" vertex="1" parent="1">
          <mxGeometry x="965" y="1610" width="120" height="80" as="geometry" />
        </mxCell>
        <mxCell id="BZiiT8lt5KZC4wHzGply-190" style="edgeStyle=orthogonalEdgeStyle;rounded=0;orthogonalLoop=1;jettySize=auto;html=1;exitX=0.5;exitY=1;exitDx=0;exitDy=0;entryX=0.5;entryY=0;entryDx=0;entryDy=0;fontSize=12;" edge="1" parent="1" source="BZiiT8lt5KZC4wHzGply-185" target="BZiiT8lt5KZC4wHzGply-186">
          <mxGeometry relative="1" as="geometry" />
        </mxCell>
        <mxCell id="BZiiT8lt5KZC4wHzGply-185" value="in: n" style="shape=parallelogram;perimeter=parallelogramPerimeter;whiteSpace=wrap;html=1;fixedSize=1;fontSize=12;" vertex="1" parent="1">
          <mxGeometry x="965" y="1730" width="120" height="60" as="geometry" />
        </mxCell>
        <mxCell id="BZiiT8lt5KZC4wHzGply-191" style="edgeStyle=orthogonalEdgeStyle;rounded=0;orthogonalLoop=1;jettySize=auto;html=1;exitX=1;exitY=0.5;exitDx=0;exitDy=0;entryX=0;entryY=0.5;entryDx=0;entryDy=0;fontSize=12;" edge="1" parent="1" source="BZiiT8lt5KZC4wHzGply-186" target="BZiiT8lt5KZC4wHzGply-188">
          <mxGeometry relative="1" as="geometry" />
        </mxCell>
        <mxCell id="BZiiT8lt5KZC4wHzGply-192" style="edgeStyle=orthogonalEdgeStyle;rounded=0;orthogonalLoop=1;jettySize=auto;html=1;exitX=0.5;exitY=1;exitDx=0;exitDy=0;entryX=0.5;entryY=0;entryDx=0;entryDy=0;fontSize=12;" edge="1" parent="1" source="BZiiT8lt5KZC4wHzGply-186" target="BZiiT8lt5KZC4wHzGply-187">
          <mxGeometry relative="1" as="geometry">
            <mxPoint x="1024.9999999999998" y="1914" as="sourcePoint" />
          </mxGeometry>
        </mxCell>
        <mxCell id="BZiiT8lt5KZC4wHzGply-186" value="n&amp;amp;(n-1)==0" style="rhombus;whiteSpace=wrap;html=1;fontSize=12;" vertex="1" parent="1">
          <mxGeometry x="985" y="1825" width="80" height="80" as="geometry" />
        </mxCell>
        <mxCell id="BZiiT8lt5KZC4wHzGply-193" style="edgeStyle=orthogonalEdgeStyle;rounded=0;orthogonalLoop=1;jettySize=auto;html=1;exitX=1;exitY=0.5;exitDx=0;exitDy=0;entryX=0;entryY=0.5;entryDx=0;entryDy=0;fontSize=12;" edge="1" parent="1" source="BZiiT8lt5KZC4wHzGply-187" target="BZiiT8lt5KZC4wHzGply-189">
          <mxGeometry relative="1" as="geometry" />
        </mxCell>
        <mxCell id="BZiiT8lt5KZC4wHzGply-187" value="out: true" style="shape=parallelogram;perimeter=parallelogramPerimeter;whiteSpace=wrap;html=1;fixedSize=1;fontSize=12;" vertex="1" parent="1">
          <mxGeometry x="965" y="1959" width="120" height="60" as="geometry" />
        </mxCell>
        <mxCell id="BZiiT8lt5KZC4wHzGply-194" style="edgeStyle=orthogonalEdgeStyle;rounded=0;orthogonalLoop=1;jettySize=auto;html=1;exitX=0.5;exitY=1;exitDx=0;exitDy=0;entryX=0.5;entryY=0;entryDx=0;entryDy=0;fontSize=12;" edge="1" parent="1" source="BZiiT8lt5KZC4wHzGply-188" target="BZiiT8lt5KZC4wHzGply-189">
          <mxGeometry relative="1" as="geometry" />
        </mxCell>
        <mxCell id="BZiiT8lt5KZC4wHzGply-188" value="out: false" style="shape=parallelogram;perimeter=parallelogramPerimeter;whiteSpace=wrap;html=1;fixedSize=1;fontSize=12;" vertex="1" parent="1">
          <mxGeometry x="1120" y="1835" width="120" height="60" as="geometry" />
        </mxCell>
        <mxCell id="BZiiT8lt5KZC4wHzGply-189" value="END" style="ellipse;whiteSpace=wrap;html=1;fontSize=12;" vertex="1" parent="1">
          <mxGeometry x="1120" y="1949" width="120" height="80" as="geometry" />
        </mxCell>
        <mxCell id="BZiiT8lt5KZC4wHzGply-195" value="11" style="text;html=1;align=center;verticalAlign=middle;resizable=0;points=[];autosize=1;strokeColor=none;fillColor=none;fontSize=18;" vertex="1" parent="1">
          <mxGeometry x="1257.5" y="1580" width="40" height="40" as="geometry" />
        </mxCell>
        <mxCell id="BZiiT8lt5KZC4wHzGply-196" style="edgeStyle=orthogonalEdgeStyle;rounded=0;orthogonalLoop=1;jettySize=auto;html=1;exitX=0.5;exitY=1;exitDx=0;exitDy=0;entryX=0.5;entryY=0;entryDx=0;entryDy=0;fontSize=12;" edge="1" parent="1" source="BZiiT8lt5KZC4wHzGply-197" target="BZiiT8lt5KZC4wHzGply-199">
          <mxGeometry relative="1" as="geometry" />
        </mxCell>
        <mxCell id="BZiiT8lt5KZC4wHzGply-197" value="START" style="ellipse;whiteSpace=wrap;html=1;" vertex="1" parent="1">
          <mxGeometry x="1297.5" y="1610" width="120" height="80" as="geometry" />
        </mxCell>
        <mxCell id="BZiiT8lt5KZC4wHzGply-198" style="edgeStyle=orthogonalEdgeStyle;rounded=0;orthogonalLoop=1;jettySize=auto;html=1;exitX=0.5;exitY=1;exitDx=0;exitDy=0;entryX=0.5;entryY=0;entryDx=0;entryDy=0;fontSize=12;" edge="1" parent="1" source="BZiiT8lt5KZC4wHzGply-199" target="BZiiT8lt5KZC4wHzGply-202">
          <mxGeometry relative="1" as="geometry" />
        </mxCell>
        <mxCell id="BZiiT8lt5KZC4wHzGply-199" value="in: k&lt;br&gt;in: m&lt;br&gt;in: n" style="shape=parallelogram;perimeter=parallelogramPerimeter;whiteSpace=wrap;html=1;fixedSize=1;fontSize=12;" vertex="1" parent="1">
          <mxGeometry x="1297.5" y="1730" width="120" height="60" as="geometry" />
        </mxCell>
        <mxCell id="BZiiT8lt5KZC4wHzGply-200" style="edgeStyle=orthogonalEdgeStyle;rounded=0;orthogonalLoop=1;jettySize=auto;html=1;exitX=1;exitY=0.5;exitDx=0;exitDy=0;entryX=0;entryY=0.5;entryDx=0;entryDy=0;fontSize=12;" edge="1" parent="1" source="BZiiT8lt5KZC4wHzGply-202" target="BZiiT8lt5KZC4wHzGply-206">
          <mxGeometry relative="1" as="geometry" />
        </mxCell>
        <mxCell id="BZiiT8lt5KZC4wHzGply-201" style="edgeStyle=orthogonalEdgeStyle;rounded=0;orthogonalLoop=1;jettySize=auto;html=1;exitX=0.5;exitY=1;exitDx=0;exitDy=0;entryX=0.5;entryY=0;entryDx=0;entryDy=0;fontSize=12;" edge="1" parent="1" source="BZiiT8lt5KZC4wHzGply-202" target="BZiiT8lt5KZC4wHzGply-204">
          <mxGeometry relative="1" as="geometry">
            <mxPoint x="1357.4999999999998" y="1914" as="sourcePoint" />
          </mxGeometry>
        </mxCell>
        <mxCell id="BZiiT8lt5KZC4wHzGply-202" value="k+m&amp;gt;n&lt;br&gt;&amp;amp;&amp;amp;&lt;br&gt;k+n&amp;gt;m&lt;br&gt;&amp;amp;&amp;amp;&lt;br&gt;m+n&amp;gt;k" style="rhombus;whiteSpace=wrap;html=1;fontSize=12;" vertex="1" parent="1">
          <mxGeometry x="1286.25" y="1814" width="142.5" height="135" as="geometry" />
        </mxCell>
        <mxCell id="BZiiT8lt5KZC4wHzGply-203" style="edgeStyle=orthogonalEdgeStyle;rounded=0;orthogonalLoop=1;jettySize=auto;html=1;exitX=1;exitY=0.5;exitDx=0;exitDy=0;entryX=0;entryY=0.5;entryDx=0;entryDy=0;fontSize=12;" edge="1" parent="1" source="BZiiT8lt5KZC4wHzGply-204" target="BZiiT8lt5KZC4wHzGply-207">
          <mxGeometry relative="1" as="geometry" />
        </mxCell>
        <mxCell id="BZiiT8lt5KZC4wHzGply-204" value="out: true" style="shape=parallelogram;perimeter=parallelogramPerimeter;whiteSpace=wrap;html=1;fixedSize=1;fontSize=12;" vertex="1" parent="1">
          <mxGeometry x="1297.5" y="2005" width="120" height="60" as="geometry" />
        </mxCell>
        <mxCell id="BZiiT8lt5KZC4wHzGply-205" style="edgeStyle=orthogonalEdgeStyle;rounded=0;orthogonalLoop=1;jettySize=auto;html=1;exitX=0.5;exitY=1;exitDx=0;exitDy=0;entryX=0.5;entryY=0;entryDx=0;entryDy=0;fontSize=12;" edge="1" parent="1" source="BZiiT8lt5KZC4wHzGply-206" target="BZiiT8lt5KZC4wHzGply-207">
          <mxGeometry relative="1" as="geometry" />
        </mxCell>
        <mxCell id="BZiiT8lt5KZC4wHzGply-206" value="out: false" style="shape=parallelogram;perimeter=parallelogramPerimeter;whiteSpace=wrap;html=1;fixedSize=1;fontSize=12;" vertex="1" parent="1">
          <mxGeometry x="1452.5" y="1851.5" width="120" height="60" as="geometry" />
        </mxCell>
        <mxCell id="BZiiT8lt5KZC4wHzGply-207" value="END" style="ellipse;whiteSpace=wrap;html=1;fontSize=12;" vertex="1" parent="1">
          <mxGeometry x="1452.5" y="1995" width="120" height="80" as="geometry" />
        </mxCell>
      </root>
    </mxGraphModel>
  </diagram>
</mxfile>
